<svg width="759" height="759" viewBox="0 0 759 759" fill="none" xmlns="http://www.w3.org/2000/svg">
<path d="M716.898 443.101L616.98 386.547L591.356 371.991L518.882 331.054L490.074 314.83L340.879 230.378C329.659 224.01 316.013 224.01 304.793 230.378L219.431 278.29L191.685 293.907L40.5191 378.814C31.7251 383.666 28.5411 394.734 33.5445 403.528C35.2124 406.409 37.6383 408.835 40.5191 410.503L116.481 453.563L144.076 469.635L342.547 582.289L369.081 597.451L414.415 623.226C426.393 630.049 441.252 630.049 453.23 623.226L602.121 539.077L627.138 524.976L716.746 474.335C725.388 469.483 728.573 458.718 723.721 450.076C722.204 447.043 719.779 444.769 716.898 443.101Z" fill="#96CF40"/>
<path d="M231.108 271.922C231.108 271.922 237.93 401.709 358.165 455.837C478.4 509.966 627.292 524.976 627.292 524.976L487.194 603.971C487.194 603.971 365.746 596.693 231.108 503.901C96.4686 411.109 131.038 328.021 131.038 328.021L231.108 271.922Z" fill="#68E1FD"/>
<path opacity="0.76" d="M231.108 271.922C231.108 271.922 237.93 401.709 358.165 455.837C478.4 509.966 627.292 524.976 627.292 524.976L487.194 603.971C487.194 603.971 365.746 596.693 231.108 503.901C96.4686 411.109 131.038 328.021 131.038 328.021L231.108 271.922Z" fill="#262626"/>
<path d="M297.977 149.266H291.609V300.734H297.977V149.266Z" fill="#3E3E4A"/>
<path d="M294.336 164.422C304.72 164.422 313.137 156.005 313.137 145.621C313.137 135.238 304.72 126.82 294.336 126.82C283.953 126.82 275.535 135.238 275.535 145.621C275.535 156.005 283.953 164.422 294.336 164.422Z" fill="#68E1FD"/>
<path d="M285.844 142.439C288.022 142.439 289.787 140.674 289.787 138.497C289.787 136.32 288.022 134.555 285.844 134.555C283.667 134.555 281.902 136.32 281.902 138.497C281.902 140.674 283.667 142.439 285.844 142.439Z" fill="white"/>
<path opacity="0.4" d="M308.59 133.344C311.926 142.441 307.832 152.448 299.038 156.693C290.547 161.09 281.753 158.664 276.75 152.448C280.541 162.152 291.306 167.003 301.009 163.213C310.713 159.422 315.565 148.657 311.774 138.954C311.168 136.831 309.955 135.012 308.59 133.344Z" fill="#3E3E4A"/>
<path d="M302.524 262.219L309.347 303.46C309.347 303.46 305.253 306.189 292.517 306.644C279.781 307.098 280.387 302.701 280.387 302.701L287.21 262.219H302.524Z" fill="#3E3E4A"/>
<path d="M294.792 266.011C298.979 266.011 302.373 264.314 302.373 262.22C302.373 260.127 298.979 258.43 294.792 258.43C290.605 258.43 287.211 260.127 287.211 262.22C287.211 264.314 290.605 266.011 294.792 266.011Z" fill="#55555F"/>
<path d="M294.79 311.04C302.829 311.04 309.345 307.782 309.345 303.762C309.345 299.743 302.829 296.484 294.79 296.484C286.751 296.484 280.234 299.743 280.234 303.762C280.234 307.782 286.751 311.04 294.79 311.04Z" fill="#3E3E4A"/>
<path d="M523.739 313.766H517.371V465.234H523.739V313.766Z" fill="#3E3E4A"/>
<path d="M519.949 328.93C530.333 328.93 538.75 320.513 538.75 310.129C538.75 299.746 530.333 291.328 519.949 291.328C509.566 291.328 501.148 299.746 501.148 310.129C501.148 320.513 509.566 328.93 519.949 328.93Z" fill="#68E1FD"/>
<path d="M511.458 306.798C513.635 306.798 515.4 305.033 515.4 302.856C515.4 300.679 513.635 298.914 511.458 298.914C509.281 298.914 507.516 300.679 507.516 302.856C507.516 305.033 509.281 306.798 511.458 306.798Z" fill="white"/>
<path opacity="0.4" d="M534.2 297.852C537.535 306.949 533.442 316.956 524.648 321.201C516.157 325.598 507.363 323.172 502.359 316.956C506.15 326.659 517.067 331.36 526.619 327.721C536.171 324.082 541.023 313.014 537.384 303.462C536.777 301.339 535.564 299.519 534.2 297.852Z" fill="#3E3E4A"/>
<path d="M528.137 426.725L534.96 467.814C534.96 467.814 530.866 470.543 518.13 470.847C505.394 471.15 506.001 466.904 506.001 466.904L512.824 426.422L528.137 426.725Z" fill="#3E3E4A"/>
<path d="M520.405 430.519C524.592 430.519 527.986 428.821 527.986 426.728C527.986 424.635 524.592 422.938 520.405 422.938C516.218 422.938 512.824 424.635 512.824 426.728C512.824 428.821 516.218 430.519 520.405 430.519Z" fill="#55555F"/>
<path d="M520.403 475.399C528.442 475.399 534.959 472.141 534.959 468.122C534.959 464.102 528.442 460.844 520.403 460.844C512.364 460.844 505.848 464.102 505.848 468.122C505.848 472.141 512.364 475.399 520.403 475.399Z" fill="#3E3E4A"/>
<path d="M382.431 238.258H397.138C398.806 238.258 400.17 239.622 400.17 241.29V373.352C400.17 375.019 398.806 376.384 397.138 376.384H382.431C380.763 376.384 379.398 375.019 379.398 373.352V241.29C379.398 239.622 380.763 238.258 382.431 238.258Z" fill="#DB5531"/>
<path d="M441.259 266.461C436.407 245.689 415.18 153.807 377.275 180.795C357.867 194.593 352.409 216.274 344.676 237.35C338.308 254.937 332.85 273.284 332.698 292.084C332.092 330.293 370.907 334.993 400.624 334.841C417.757 334.69 442.168 324.683 446.262 306.034C448.688 294.814 444.594 281.623 442.168 270.554L441.259 266.461Z" fill="#2C9135"/>
<path d="M594.853 321.805H608.65C610.318 321.805 611.683 323.169 611.683 324.837V450.682C611.683 452.35 610.318 453.714 608.65 453.714H594.853C593.185 453.714 591.82 452.35 591.82 450.682V324.837C591.82 323.169 593.185 321.805 594.853 321.805Z" fill="#DB5531"/>
<path d="M650.95 348.791C646.401 328.929 625.933 241.141 589.847 266.916C571.349 280.107 566.043 300.727 558.765 321.045C552.7 337.723 547.545 355.311 547.242 373.354C546.635 409.894 583.782 414.291 612.287 414.14C628.662 414.14 652.011 404.436 655.954 386.545C658.228 375.78 654.286 363.195 652.011 352.582C651.557 351.369 651.253 350.004 650.95 348.791Z" fill="#2C9135"/>
<path opacity="0.4" d="M443.081 270.55C442.778 269.186 442.475 267.821 442.172 266.457C437.926 247.959 420.793 174.12 390.621 175.939C399.566 214.906 412.757 256.146 405.631 296.023C403.205 309.82 398.05 323.618 389.711 334.686C393.653 334.837 397.595 334.989 401.386 334.989C418.519 334.837 442.93 324.831 447.023 306.181C449.601 294.81 445.507 281.619 443.081 270.55Z" fill="#111224"/>
<path opacity="0.4" d="M652.616 352.585C652.313 351.221 652.01 350.008 651.707 348.643C647.613 331.055 631.238 260.4 602.43 262.068C610.921 299.367 623.505 338.636 616.834 376.845C614.56 390.036 609.556 403.227 601.672 413.688C605.462 413.84 609.253 413.992 612.892 413.84C629.267 413.84 652.616 404.136 656.558 386.245C658.833 375.783 654.891 363.199 652.616 352.585Z" fill="#111224"/>
<path d="M437.167 346.055H446.416C447.932 346.055 448.994 347.268 448.994 348.632V439.604C448.994 441.121 447.781 442.182 446.416 442.182H437.167C435.651 442.182 434.59 440.969 434.59 439.604V348.632C434.59 347.116 435.803 346.055 437.167 346.055Z" fill="#DB5531"/>
<path d="M477.649 365.776C474.313 351.221 459.454 287.237 433.072 306.038C419.578 315.741 415.787 330.752 410.329 345.459C405.781 357.74 402.142 370.476 401.99 383.516C401.535 410.201 428.675 413.385 449.447 413.385C461.425 413.385 478.407 406.259 481.287 393.371C482.955 385.487 480.075 376.39 478.407 368.657L477.649 365.776Z" fill="#2C9135"/>
<path opacity="0.4" d="M479.014 368.505C478.863 367.595 478.559 366.685 478.408 365.624C475.375 352.736 463.397 301.185 442.474 302.55C448.69 329.69 457.939 358.346 452.936 386.244C451.419 395.948 447.629 405.197 441.867 413.233C444.596 413.385 447.326 413.385 450.055 413.385C462.033 413.385 479.014 406.258 481.895 393.371C483.563 385.486 480.682 376.238 479.014 368.505Z" fill="#111224"/>
<path d="M265.527 313.011C265.679 312.556 266.285 312.102 266.74 312.102C266.285 313.163 266.588 314.527 267.498 315.286C268.863 316.802 270.682 318.015 272.501 318.773C273.411 319.379 274.169 320.137 275.079 320.744C275.685 321.199 276.292 321.35 277.05 321.199C277.808 322.109 278.718 323.018 279.628 323.625C281.144 324.534 282.508 325.444 283.721 326.506C284.631 327.415 287.057 329.235 286.299 330.296C285.541 331.357 283.873 331.054 282.205 330.448C282.357 330.599 282.508 330.751 282.66 330.902C283.873 332.419 284.479 335.299 281.75 335.299C282.205 336.209 282.205 337.422 281.447 338.18C279.779 339.545 278.566 338.18 277.808 337.422C277.202 338.029 276.292 338.332 275.382 338.029C274.624 337.877 274.018 337.422 273.714 336.816C268.256 339.545 266.285 325.899 265.83 320.896C265.224 318.318 264.466 315.134 265.527 313.011Z" fill="#FF815A"/>
<path d="M276.14 331.514C276.14 330.908 276.443 330.301 277.049 329.998C275.685 329.695 274.32 328.937 273.41 327.875C272.349 326.359 272.046 324.388 272.804 322.569C272.956 322.114 273.714 322.417 273.562 322.872C272.956 324.54 273.259 326.359 274.32 327.572C275.533 328.634 277.049 329.24 278.566 329.392H278.717C278.717 329.24 278.717 329.24 278.717 329.088C279.475 326.966 281.901 328.634 282.659 329.695C282.962 330.15 282.356 330.605 282.053 330.301C281.75 329.998 280.991 328.937 280.233 328.937C278.869 328.937 280.082 331.211 280.233 331.666C280.84 332.879 281.446 333.94 282.204 335.002C282.508 335.456 281.901 335.911 281.598 335.608C280.84 334.395 280.082 333.334 279.475 332.121C279.172 331.514 278.869 331.059 278.717 330.453C275.23 330.605 277.656 335.153 278.414 336.973C278.566 337.428 277.807 337.882 277.656 337.276C276.898 335.76 276.443 334.092 276.14 332.272C274.927 332.121 273.41 332.121 273.562 333.94C273.714 334.85 274.017 335.76 274.472 336.669C274.623 337.124 273.865 337.579 273.714 336.973C273.259 335.608 272.349 333.94 272.956 332.576C273.562 331.211 274.927 331.363 276.14 331.514Z" fill="#111224"/>
<path d="M265.373 289.664C267.648 301.49 271.438 312.104 278.867 321.353C278.413 322.566 275.683 328.176 261.886 328.176L249.453 311.801L265.373 289.664Z" fill="#F877AF"/>
<path opacity="0.4" d="M265.373 289.664C267.648 301.49 271.438 312.104 278.867 321.353C278.413 322.566 275.683 328.176 261.886 328.176L249.453 311.801L265.373 289.664Z" fill="#111224"/>
<path d="M249.605 412.168L239.295 428.543C239.295 428.543 236.263 431.576 231.411 428.543C226.559 425.511 228.833 422.782 228.833 422.782L236.263 405.648" fill="#FF815A"/>
<path d="M238.385 255.239C234.595 255.543 224.133 249.781 216.552 265.853C208.971 281.925 223.223 288.596 214.884 292.538C206.545 296.48 197.751 300.574 203.968 310.884C210.184 321.194 223.375 325.743 228.53 315.129C233.685 304.516 244.299 277.831 240.811 259.181" fill="#111224"/>
<path d="M267.039 445.227V463.573C265.978 466.605 263.097 468.728 259.913 468.576C256.881 468.728 254.151 466.453 253.848 463.421L252.332 446.44" fill="#FF815A"/>
<path d="M249.756 462.363C250.059 460.847 252.94 459.33 253.394 459.33C253.849 459.33 253.698 462.06 253.698 462.06C256.427 466.457 262.037 466.457 262.643 465.699C263.25 464.94 260.369 460.695 261.582 459.634C262.795 458.572 267.95 458.269 268.556 458.572C269.163 458.876 267.798 463.727 267.95 464.031C269.618 467.518 274.166 470.55 277.502 472.218C280.838 473.886 283.567 474.947 285.386 478.435C286.448 480.406 286.599 482.68 285.538 484.651C284.173 486.622 280.989 486.925 278.867 486.925C273.257 486.774 267.95 484.045 263.098 481.315C258.701 479.041 254.607 476.464 250.817 473.431C250.059 472.825 249.452 463.879 249.756 462.363Z" fill="#68E1FD"/>
<path d="M226.106 419.749C227.016 418.839 230.049 418.839 230.352 419.142C230.655 419.446 229.291 421.417 229.291 421.417C229.442 426.117 233.687 428.694 234.597 428.391C235.507 428.088 235.204 423.388 236.568 423.236C237.933 423.084 242.178 425.056 242.481 425.662C242.785 426.268 239.449 429.301 239.449 429.604C239.146 433.091 241.269 437.64 243.088 440.521C244.907 443.402 246.575 445.524 246.272 449.012C246.272 450.983 245.211 452.802 243.391 453.863C241.42 454.773 238.843 453.56 237.023 452.499C232.778 449.77 229.897 445.069 227.319 440.672C224.894 436.882 222.922 432.94 221.406 428.694C221.406 427.936 225.197 420.658 226.106 419.749Z" fill="#68E1FD"/>
<path opacity="0.68" d="M249.756 462.363C250.059 460.847 252.94 459.33 253.394 459.33C253.849 459.33 253.698 462.06 253.698 462.06C256.427 466.457 262.037 466.457 262.643 465.699C263.25 464.94 260.369 460.695 261.582 459.634C262.795 458.572 267.95 458.269 268.556 458.572C269.163 458.876 267.798 463.727 267.95 464.031C269.618 467.518 274.166 470.55 277.502 472.218C280.838 473.886 283.567 474.947 285.386 478.435C286.448 480.406 286.599 482.68 285.538 484.651C284.173 486.622 280.989 486.925 278.867 486.925C273.257 486.774 267.95 484.045 263.098 481.315C258.701 479.041 254.607 476.464 250.817 473.431C250.059 472.825 249.452 463.879 249.756 462.363Z" fill="#D0F6FF"/>
<path opacity="0.68" d="M226.106 419.749C227.016 418.839 230.049 418.839 230.352 419.142C230.655 419.446 229.291 421.417 229.291 421.417C229.442 426.117 233.687 428.694 234.597 428.391C235.507 428.088 235.204 423.388 236.568 423.236C237.933 423.084 242.178 425.056 242.481 425.662C242.785 426.268 239.449 429.301 239.449 429.604C239.146 433.091 241.269 437.64 243.088 440.521C244.907 443.402 246.575 445.524 246.272 449.012C246.272 450.983 245.211 452.802 243.391 453.863C241.42 454.773 238.843 453.56 237.023 452.499C232.778 449.77 229.897 445.069 227.319 440.672C224.894 436.882 222.922 432.94 221.406 428.694C221.406 427.936 225.197 420.658 226.106 419.749Z" fill="#D0F6FF"/>
<path d="M261.581 319.688C265.978 320.9 278.108 377.455 275.834 383.368C273.559 389.281 245.358 431.583 241.416 429.916C237.474 428.248 229.59 412.328 231.409 408.537C233.228 404.747 248.694 375.635 248.694 375.635L245.51 322.417" fill="#68E1FD"/>
<path d="M231.262 325.901C231.262 325.901 240.511 444.468 245.362 450.382C250.214 456.295 267.347 458.114 269.925 456.143C272.502 454.172 262.647 338.486 250.518 322.414" fill="#68E1FD"/>
<path d="M261.586 319.683C263.103 318.167 272.048 281.323 266.135 273.136C260.222 264.948 233.537 278.594 229.443 284.356C225.349 290.117 232.324 315.893 232.778 319.683C233.233 323.474 250.821 330.448 261.586 319.683Z" fill="#F877AF"/>
<path d="M257.033 261.306C257.185 262.215 257.943 278.287 250.059 281.016C242.175 283.745 233.077 267.219 236.868 259.335C240.658 251.45 254.911 250.389 257.033 261.306Z" fill="#FF815A"/>
<path d="M243.084 264.037C241.719 265.705 241.719 270.254 242.174 272.376C242.326 273.286 242.326 274.347 242.174 275.257C242.326 276.167 242.326 276.925 242.326 277.835C241.568 277.228 240.961 276.622 240.203 275.864C239.9 276.015 239.597 276.167 239.293 276.015C238.99 275.864 238.687 275.712 238.384 275.409C237.777 274.954 237.019 274.802 236.261 274.347C235.048 273.438 233.987 272.073 233.683 270.557C233.077 268.889 232.622 267.221 232.47 265.402C232.167 261.915 232.774 258.276 234.29 255.243C238.535 247.207 249.3 247.056 255.972 252.363C255.668 251.756 254.91 249.633 257.184 250.088C259.914 250.695 262.188 256.153 262.188 256.153C262.643 255.243 261.278 252.514 261.278 252.514C261.278 252.514 264.462 253.121 264.007 258.427C263.553 263.734 257.184 266.918 255.062 262.369C252.939 257.821 252.484 258.427 252.484 258.427C254.607 262.218 252.636 264.947 247.936 265.857C246.116 266.16 244.145 265.554 243.084 264.037Z" fill="#111224"/>
<path d="M239.448 268.591C240.055 267.378 241.723 266.772 242.935 267.53C243.087 267.681 243.239 267.681 243.39 267.833C244.3 268.743 244.907 269.956 245.361 271.169C245.513 271.472 245.513 271.927 245.361 272.23C245.665 272.836 245.665 273.594 245.361 274.353C244.755 275.262 243.542 275.566 242.632 275.111C240.661 274.049 237.932 271.017 239.448 268.591Z" fill="#FF815A"/>
<path d="M241.416 276.465C244.347 276.465 246.723 274.089 246.723 271.158C246.723 268.227 244.347 265.852 241.416 265.852C238.485 265.852 236.109 268.227 236.109 271.158C236.109 274.089 238.485 276.465 241.416 276.465Z" fill="#68E1FD"/>
<path d="M253.247 250.241C253.247 250.241 240.208 252.97 241.875 268.284L237.782 267.071C237.782 267.071 234.901 253.88 249.153 248.422C250.669 248.422 252.337 249.028 253.247 250.241Z" fill="#68E1FD"/>
<path d="M229.745 358.798C230.048 358.192 230.655 357.889 231.261 358.04C231.261 356.373 233.99 355.918 234.293 357.585C234.445 358.192 234.597 358.798 234.748 359.557C235.355 358.95 236.265 359.102 236.871 359.708L237.023 359.86C237.478 360.011 237.932 360.466 238.084 360.921C238.387 362.286 238.69 363.65 239.145 365.015V365.166C239.903 366.834 240.965 368.199 242.481 369.109C243.846 369.867 245.059 370.928 246.272 371.989C247.181 372.899 249.152 374.567 248.546 375.628C247.939 376.69 246.272 376.235 244.755 375.477L245.059 375.932C246.12 377.448 246.878 379.874 244.604 380.632C245.059 381.39 244.755 382.3 243.997 382.754C242.481 383.967 241.116 383.058 240.207 381.845C239.6 382.3 238.842 382.603 238.084 382.451C237.174 381.996 236.568 381.238 236.113 380.48C231.413 382.148 230.2 370.928 229.897 366.228C229.29 363.802 228.835 360.921 229.745 358.798Z" fill="#FF815A"/>
<path d="M229.593 284.352C229.593 284.352 221.406 290.72 221.103 313.008C220.799 335.296 228.38 367.44 228.38 367.44C228.38 367.44 244.907 368.349 245.513 365.014C246.12 361.678 240.055 312.098 240.055 312.098" fill="#F877AF"/>
<path d="M242.634 294.964C242.785 293.751 240.814 293.751 240.663 294.964C238.843 317.253 239.905 339.692 243.847 361.829C243.998 363.042 245.969 362.587 245.666 361.374C241.876 339.389 240.814 317.101 242.634 294.964Z" fill="#F877AF"/>
<path opacity="0.4" d="M242.634 294.964C242.785 293.751 240.814 293.751 240.663 294.964C238.843 317.253 239.905 339.692 243.847 361.829C243.998 363.042 245.969 362.587 245.666 361.374C241.876 339.389 240.814 317.101 242.634 294.964Z" fill="#111224"/>
<path d="M257.033 334.995C256.73 333.782 254.91 334.237 255.214 335.45C264.917 374.871 269.314 415.505 268.405 456.139C268.405 456.746 269.011 457.049 269.466 457.049C269.921 457.049 270.224 456.594 270.376 456.139C271.285 415.354 266.737 374.719 257.033 334.995Z" fill="#111224"/>
<path d="M313.288 475.541C313.288 475.541 312.681 484.184 314.197 487.065C315.714 489.945 318.443 493.736 321.324 492.371C324.204 491.007 321.779 487.671 319.959 485.397C318.594 483.881 318.898 481.455 320.414 480.242C320.717 479.938 321.172 479.787 321.627 479.635C324.204 478.574 319.656 474.177 313.288 475.541Z" fill="#DB5531"/>
<path d="M366.657 501.625C366.505 502.231 364.989 516.029 366.05 518.455C367.112 520.881 371.509 524.368 373.328 521.791C375.147 519.213 374.238 518 372.722 516.332C372.722 516.332 374.238 504.354 374.693 503.141" fill="#DB5531"/>
<path d="M381.06 491.458L380.908 491.762C378.33 495.552 378.482 500.101 376.511 504.195C374.843 507.53 371.962 511.321 368.172 511.927C358.923 513.292 352.555 512.534 343.155 504.649C333.754 496.765 326.476 482.058 319.957 479.026C313.437 475.993 309.192 484.332 303.885 482.21C298.578 480.087 298.578 478.419 298.578 478.419C300.549 476.145 301.914 473.416 302.52 470.535C303.278 465.986 308.282 455.221 321.928 459.77C335.574 464.318 352.858 480.239 361.046 479.177C369.233 478.116 373.024 466.138 380.453 472.051C383.94 474.477 385.911 478.419 385.911 482.664C385.76 486.152 383.031 488.578 381.06 491.458Z" fill="#FF815A"/>
<path d="M356.195 510.562C356.195 511.169 357.408 525.118 358.773 527.241C360.137 529.363 365.293 531.941 366.506 529.212C367.718 526.483 366.657 525.421 364.989 524.057C364.989 524.057 364.231 512.079 364.383 510.714" fill="#FF815A"/>
<path d="M298.428 478.275C298.428 478.275 297.822 486.918 299.338 489.798C300.854 492.679 303.583 496.47 306.464 495.105C309.345 493.74 306.919 490.556 305.1 488.13C303.735 486.614 304.038 484.188 305.555 482.975C305.858 482.672 306.313 482.521 306.768 482.369C309.497 481.308 304.948 476.759 298.428 478.275Z" fill="#FF815A"/>
<path d="M309.043 460.383C309.043 460.383 302.674 462.961 299.794 459.625C296.913 456.29 299.945 452.499 301.31 451.438C301.31 451.438 293.729 451.286 294.184 459.625C294.639 467.964 305.404 466.448 307.981 464.174" fill="#FF815A"/>
<path d="M395.009 472.204C395.009 472.204 397.587 464.471 391.067 461.894C384.547 459.316 383.031 464.471 383.031 464.471L395.009 472.204Z" fill="#DB5531"/>
<path d="M367.871 480.698C367.871 480.698 363.171 469.933 377.12 464.474C377.12 464.474 383.033 459.774 388.34 462.958C393.647 466.142 395.315 469.629 395.011 472.207C395.011 472.207 406.231 478.878 405.473 480.698C404.715 482.517 401.683 487.824 394.86 486.611C388.037 485.398 381.062 484.185 381.062 484.185" fill="#FF815A"/>
<path d="M380.912 467.046C379.396 465.53 377.122 465.075 375.151 465.682C369.389 467.35 360.898 478.418 368.328 482.967C372.27 485.392 377.122 480.995 379.548 478.266C381.064 476.75 382.125 474.931 382.883 472.96C383.338 470.837 382.58 468.563 380.912 467.046Z" fill="#DB5531"/>
<path d="M405.47 480.701C405.167 479.791 404.712 479.033 403.954 478.426C402.589 477.365 400.618 477.972 400.77 479.639C400.922 481.307 403.499 483.885 404.106 482.975C404.712 482.065 405.47 480.701 405.47 480.701Z" fill="#DB5531"/>
<path d="M381.062 491.467C372.571 494.044 366.506 486.463 364.99 479.034C364.687 477.821 362.867 478.276 363.171 479.489C364.99 488.131 372.116 496.167 381.668 493.286C382.123 493.135 382.426 492.68 382.275 492.073C382.123 491.618 381.517 491.315 381.062 491.467Z" fill="#111224"/>
<path d="M363.321 477.818C339.062 464.779 323.293 441.126 310.861 417.322C297.063 390.94 287.359 362.284 284.327 332.566C284.175 331.353 282.204 331.353 282.356 332.566C285.388 362.587 295.092 391.546 309.193 418.383C321.777 442.491 337.849 466.295 362.26 479.638C363.321 480.093 364.383 478.425 363.321 477.818Z" fill="#111224"/>
</svg>
